<svg width="109" height="31" viewBox="0 0 109 31" fill="none" xmlns="http://www.w3.org/2000/svg">
<mask id="mask0_193_9143" style="mask-type:luminance" maskUnits="userSpaceOnUse" x="1" y="0" width="107" height="31">
<path d="M107.997 0.785645H1.59106V30.7856H107.997V0.785645Z" fill="white"/>
</mask>
<g mask="url(#mask0_193_9143)">
<path d="M30.5831 11.5013C30.5831 11.5013 26.744 11.97 18.5081 0.785645C18.5081 0.785645 13.8206 7.26846 10.9659 9.34971C8.11116 11.431 7.09866 11.3091 6.17053 11.5013V16.7278H8.6221V17.6185H27.4377C27.4377 17.6185 25.9799 21.1997 19.4362 21.8372C11.3877 22.6013 9.72835 15.7528 6.17053 20.1356C6.17053 20.1356 10.5346 19.9669 18.5409 30.72C18.5409 30.72 23.0081 25.1278 23.8659 24.1575C24.7237 23.1872 27.7377 20.2247 30.5831 20.2247V14.8435H28.2674V13.906H9.27834C9.27834 13.906 10.8909 11.0935 15.5362 10.0622C19.7549 9.12471 21.7143 9.69658 25.0284 11.6513C26.5424 12.5231 28.8627 14.0466 30.5831 11.5013Z" fill="#FFC214"/>
<path d="M37.6334 17.4731C37.644 17.9844 37.7068 18.4933 37.8209 18.9919C37.8645 19.1766 37.9684 19.3416 38.1162 19.4606C38.2717 19.565 38.4615 19.6053 38.6459 19.5731C38.892 19.5241 39.1099 19.3825 39.2547 19.1776C39.3995 18.9726 39.4601 18.7199 39.4241 18.4716C39.4241 17.7497 38.9272 17.3231 38.3553 16.9622C37.5069 16.4278 36.56 16.0247 35.8803 15.2606C35.4586 14.751 35.1992 14.1268 35.1357 13.4684C35.0722 12.81 35.2075 12.1477 35.5241 11.5669C35.8331 11.0545 36.2788 10.6383 36.8112 10.3651C37.3436 10.0918 37.9416 9.97234 38.5381 10.02C41.1069 10.1325 41.8194 11.2106 41.7537 13.7419H39.3303C39.2881 12.9825 39.4944 11.9325 38.4303 11.9747C37.6944 12.0028 37.6147 12.9122 37.835 13.4419C38.0998 13.9283 38.5358 14.2991 39.0584 14.4825C41.0881 15.4997 41.9506 16.3575 41.9506 18.1903C41.9506 20.0231 40.8912 21.4294 38.4303 21.4294C35.7678 21.4294 35.1491 19.6481 35.1772 17.4637L37.6334 17.4731Z" fill="#FFC214"/>
<path d="M45.2647 10.334V17.9652C45.2647 18.6777 45.4053 19.4746 46.2022 19.4746C46.9991 19.4746 47.1397 18.7855 47.1397 17.9746V10.334H49.4834V17.9137C49.4834 20.1309 48.4803 21.4574 46.2022 21.4574C43.9241 21.4574 42.9912 20.1449 42.9912 17.8902V10.334H45.2647Z" fill="#FFC214"/>
<path d="M50.6551 21.2324V10.334H53.4676C55.1551 15.4902 55.5489 16.7043 55.6614 17.2059H55.7082C55.5957 15.8324 55.5629 14.0371 55.5629 12.3355V10.334H57.8176V21.2324H55.0661C53.3082 15.5699 52.9801 14.4684 52.8536 13.9996H52.802C52.8911 15.3121 52.9379 17.3277 52.9379 19.1137V21.2324H50.6551Z" fill="#FFC214"/>
<path d="M68.7677 21.2327H67.1598C67.1187 20.9483 67.0921 20.662 67.0802 20.3749C66.9151 20.7236 66.6464 21.0129 66.3109 21.2034C65.9753 21.3938 65.5892 21.4761 65.2052 21.439C63.302 21.439 62.4301 19.8077 62.4301 15.8515C62.4301 11.5343 63.738 10.1421 65.8145 10.1421C68.5098 10.1421 68.7255 12.5749 68.7489 13.4233H66.5551C66.5317 12.8937 66.4708 12.1155 65.7442 12.1155C64.9286 12.1155 64.727 13.3343 64.727 15.8655C64.727 18.4858 64.9239 19.4655 65.7114 19.4655C66.377 19.4655 66.5786 18.828 66.5786 17.6515V16.9765H65.6411V15.0077H68.7677V21.2327Z" fill="#FFC214"/>
<path d="M72.4987 16.7746V21.2324H70.1549V10.334H73.6424C75.6299 10.334 76.6471 11.3793 76.6471 13.3527C76.6471 14.8621 75.944 15.5699 75.3206 15.8277C76.1268 16.2074 76.5112 16.9105 76.5112 18.4762V18.8512C76.4951 19.6449 76.5311 20.4388 76.619 21.2277H74.3221C74.1822 20.4169 74.1272 19.5937 74.1581 18.7715V18.3824C74.1581 17.0934 73.9143 16.7559 73.0049 16.7559L72.4987 16.7746ZM72.4987 14.8996H73.0518C73.9377 14.8996 74.2799 14.5621 74.2799 13.4934C74.2799 12.598 73.9799 12.2043 73.2018 12.2043H72.4987V14.8996Z" fill="#FFC214"/>
<path d="M84.5319 15.7153C84.5319 19.7091 83.5007 21.4388 80.9366 21.4388C78.546 21.4388 77.4819 19.681 77.4819 15.6591C77.4819 11.7966 78.6632 10.1372 81.0303 10.1372C83.3975 10.1372 84.5319 11.9231 84.5319 15.7153ZM80.1819 15.7153C80.1819 18.406 80.1819 19.4653 81.0022 19.4653C81.8225 19.4653 81.8178 18.3778 81.8178 15.6075C81.8178 13.02 81.8507 12.1106 81.0022 12.1106C80.1538 12.1106 80.1819 13.1747 80.1819 15.7153Z" fill="#FFC214"/>
<path d="M87.6722 10.334V17.9652C87.6722 18.6777 87.8081 19.4746 88.6097 19.4746C89.4112 19.4746 89.5472 18.7855 89.5472 17.9746V10.334H91.83V17.9137C91.83 20.1309 90.8456 21.4574 88.5815 21.4574C86.3175 21.4574 85.4268 20.1449 85.4268 17.8902V10.334H87.6722Z" fill="#FFC214"/>
<path d="M93.0912 10.334H96.5412C98.36 10.334 99.6725 11.384 99.6725 13.6152C99.6725 15.8465 98.4959 16.9574 96.4334 16.9574H95.4959V21.209H93.0912V10.334ZM95.4912 15.0637H96.1147C96.949 15.0637 97.2631 14.6418 97.2631 13.6199C97.2631 12.598 96.8459 12.2137 96.1662 12.2137H95.4912V15.0637Z" fill="#FFC214"/>
<path d="M10.9333 16.1701C10.9373 16.2979 10.953 16.4249 10.9801 16.5498C10.9918 16.596 11.0181 16.6371 11.0551 16.667C11.0738 16.6807 11.0951 16.6903 11.1177 16.6951C11.1404 16.7 11.1638 16.7 11.1864 16.6951C11.2482 16.6826 11.3029 16.6471 11.3394 16.5957C11.376 16.5444 11.3916 16.481 11.3833 16.4186C11.3748 16.3384 11.3457 16.2617 11.2989 16.196C11.2521 16.1303 11.1891 16.0778 11.1161 16.0436C10.8902 15.9321 10.6818 15.7884 10.4973 15.617C10.393 15.4984 10.3265 15.3512 10.3065 15.1946C10.2864 15.0379 10.3137 14.8787 10.3847 14.7376C10.4558 14.5966 10.5674 14.4799 10.7052 14.4027C10.8431 14.3256 11.0008 14.2914 11.1583 14.3045C11.8051 14.3326 11.9786 14.6045 11.9645 15.242H11.3598C11.3598 15.0498 11.402 14.7733 11.1348 14.8014C10.9473 14.8014 10.9286 15.0311 10.9848 15.167C11.0508 15.2879 11.1594 15.3798 11.2895 15.4248C11.8004 15.6826 12.0161 15.8936 12.0161 16.3623C12.0228 16.4767 12.004 16.5912 11.961 16.6975C11.9181 16.8037 11.852 16.8991 11.7677 16.9767C11.6833 17.0543 11.5828 17.1122 11.4734 17.1462C11.3639 17.1802 11.2483 17.1894 11.1348 17.1733C10.4645 17.1733 10.3051 16.7045 10.3192 16.1842L10.9333 16.1701Z" fill="white"/>
<path d="M12.841 14.3841V16.2919C12.841 16.47 12.8738 16.6716 13.0754 16.6716C13.2769 16.6716 13.3097 16.4981 13.3097 16.2919V14.3841H13.891V16.2591C13.891 16.8169 13.6379 17.145 13.066 17.145C12.4941 17.145 12.2597 16.8169 12.2597 16.2544V14.3794L12.841 14.3841Z" fill="white"/>
<path d="M14.1911 17.1072V14.3838H14.8942C15.3161 15.6682 15.4145 15.9775 15.4426 16.0994C15.4145 15.7572 15.4098 15.3072 15.4098 14.8807V14.3838H15.9723V17.1072H15.2926C14.852 15.701 14.7723 15.415 14.7395 15.2979C14.7629 15.626 14.7723 16.1322 14.7723 16.5775V17.1072H14.1911Z" fill="white"/>
<path d="M18.7239 17.1076H18.3208C18.3208 17.0373 18.3208 16.967 18.3208 16.892C18.2797 16.9794 18.2126 17.052 18.1287 17.0998C18.0448 17.1476 17.9482 17.1684 17.852 17.1592C17.3833 17.1592 17.1583 16.7514 17.1583 15.7529C17.1583 14.6748 17.4864 14.3467 18.0067 14.3467C18.1107 14.3459 18.2137 14.3673 18.3088 14.4095C18.4038 14.4517 18.4888 14.5137 18.558 14.5913C18.6272 14.669 18.6791 14.7605 18.7101 14.8598C18.7412 14.959 18.7507 15.0638 18.738 15.167H18.1708C18.1708 15.0358 18.1708 14.8389 17.9692 14.8389C17.7677 14.8389 17.7161 15.1483 17.7161 15.7764C17.7161 16.4045 17.763 16.6764 17.9599 16.6764C18.1567 16.6764 18.1755 16.517 18.1755 16.2076V16.0389H17.9411V15.5701H18.7239V17.1076Z" fill="white"/>
<path d="M19.6613 15.9917V17.1074H19.0753V14.3839H19.9472C20.0493 14.3708 20.1529 14.3813 20.2503 14.4146C20.3476 14.448 20.4359 14.5033 20.5084 14.5762C20.5809 14.6492 20.6357 14.7379 20.6684 14.8354C20.7012 14.9329 20.711 15.0367 20.6972 15.1386C20.7131 15.2636 20.6896 15.3904 20.6299 15.5013C20.5702 15.6122 20.4774 15.7017 20.3644 15.7574C20.566 15.8511 20.6644 16.0245 20.6644 16.4183V16.512C20.6592 16.7109 20.6686 16.9099 20.6925 17.1074H20.116C20.0816 16.9046 20.0674 16.6989 20.0738 16.4933V16.3995C20.0738 16.0761 20.0128 15.9917 19.7878 15.9917H19.6613ZM19.6613 15.523H19.7972C20.0175 15.523 20.1066 15.4386 20.1066 15.1714C20.1066 14.9042 20.0316 14.848 19.8347 14.848H19.6613V15.523Z" fill="white"/>
<path d="M22.685 15.7294C22.685 16.7278 22.4271 17.1356 21.785 17.1356C21.1428 17.1356 20.9225 16.695 20.9225 15.6919C20.9225 14.6888 21.2178 14.2856 21.8084 14.2856C22.399 14.2856 22.685 14.7778 22.685 15.7294ZM21.5975 15.7294C21.5975 16.3997 21.5975 16.6669 21.799 16.6669C22.0006 16.6669 22.0053 16.395 22.0053 15.7013C22.0053 15.0075 22.0053 14.8247 21.799 14.8247C21.5928 14.8247 21.5834 15.1013 21.5834 15.7294H21.5975Z" fill="white"/>
<path d="M23.4534 14.3841V16.2919C23.4534 16.47 23.4909 16.6716 23.6878 16.6716C23.8847 16.6716 23.9175 16.4981 23.9175 16.2919V14.3841H24.4894V16.2591C24.4894 16.8169 24.2456 17.145 23.6784 17.145C23.1113 17.145 22.8863 16.8169 22.8863 16.2544V14.3794L23.4534 14.3841Z" fill="white"/>
<path d="M24.813 14.3838H25.6755C25.8956 14.3875 26.1051 14.4785 26.2581 14.6367C26.411 14.795 26.4949 15.0075 26.4911 15.2275C26.4874 15.4476 26.3964 15.6571 26.2382 15.8101C26.08 15.9631 25.8674 16.0469 25.6474 16.0432H25.413V17.1072H24.813V14.3838ZM25.413 15.5697H25.5677C25.7786 15.5697 25.8583 15.4619 25.8583 15.2088C25.8583 14.9557 25.7505 14.8572 25.5818 14.8572H25.413V15.5697Z" fill="white"/>
<path d="M100.713 9.18603V10.1235H100.497V8.06104H101.369C101.749 8.06104 102.012 8.24384 102.012 8.61415C102.015 8.7206 101.982 8.82502 101.918 8.91022C101.854 8.99543 101.763 9.05633 101.66 9.0829C101.796 9.12509 101.96 9.23291 101.96 9.58916V9.67822C101.946 9.81848 101.946 9.95983 101.96 10.1001H101.74C101.724 9.96304 101.724 9.82463 101.74 9.68758V9.61728C101.74 9.28446 101.618 9.18603 101.271 9.18603H100.713ZM100.713 8.98447H101.313C101.632 8.98447 101.782 8.86728 101.782 8.60009C101.782 8.33291 101.622 8.23915 101.313 8.23915H100.699L100.713 8.98447Z" fill="#FDC113"/>
<path d="M101.262 11.117C100.855 11.1179 100.457 10.9982 100.119 10.7729C99.7807 10.5477 99.5169 10.2271 99.3609 9.85173C99.2049 9.47638 99.1639 9.06318 99.2429 8.66447C99.322 8.26577 99.5176 7.8995 99.8051 7.61209C100.092 7.32467 100.459 7.12904 100.858 7.04997C101.256 6.97089 101.669 7.01195 102.045 7.16793C102.42 7.3239 102.741 7.58778 102.966 7.92614C103.191 8.26449 103.311 8.66208 103.31 9.06855C103.309 9.61145 103.093 10.1318 102.709 10.5156C102.325 10.8995 101.805 11.1157 101.262 11.117ZM101.262 7.2123C100.891 7.2123 100.528 7.32227 100.22 7.5283C99.9115 7.73432 99.6712 8.02716 99.5292 8.36977C99.3873 8.71238 99.3502 9.08938 99.4225 9.4531C99.4949 9.81681 99.6735 10.1509 99.9357 10.4131C100.198 10.6753 100.532 10.8539 100.896 10.9263C101.26 10.9986 101.637 10.9615 101.979 10.8196C102.322 10.6777 102.615 10.4373 102.821 10.129C103.027 9.82065 103.137 9.45814 103.137 9.0873C103.137 8.59002 102.939 8.11311 102.587 7.76148C102.236 7.40985 101.759 7.2123 101.262 7.2123Z" fill="#FDC113"/>
</g>
</svg>
